<mxfile host="app.diagrams.net" modified="2021-05-15T02:33:12.577Z" agent="5.0 (Macintosh; Intel Mac OS X 10_14_0) AppleWebKit/537.36 (KHTML, like Gecko) Chrome/88.0.4324.192 Safari/537.36" etag="-lufZ_3UkHS2OKn7NycU" version="14.6.13" type="github" pages="2">
  <diagram id="ly2ooe9w6-Pa7oqlMoro" name="NameNode">
    <mxGraphModel dx="946" dy="528" grid="1" gridSize="10" guides="1" tooltips="1" connect="1" arrows="1" fold="1" page="1" pageScale="1" pageWidth="827" pageHeight="1169" math="0" shadow="0">
      <root>
        <mxCell id="0" />
        <mxCell id="1" parent="0" />
        <mxCell id="ha4TE4l5QeBn7lYoLzAS-3" value="" style="edgeStyle=orthogonalEdgeStyle;rounded=0;orthogonalLoop=1;jettySize=auto;html=1;" parent="1" source="ha4TE4l5QeBn7lYoLzAS-1" target="ha4TE4l5QeBn7lYoLzAS-2" edge="1">
          <mxGeometry relative="1" as="geometry" />
        </mxCell>
        <mxCell id="ha4TE4l5QeBn7lYoLzAS-6" style="edgeStyle=orthogonalEdgeStyle;rounded=0;orthogonalLoop=1;jettySize=auto;html=1;" parent="1" source="ha4TE4l5QeBn7lYoLzAS-1" target="ha4TE4l5QeBn7lYoLzAS-4" edge="1">
          <mxGeometry relative="1" as="geometry" />
        </mxCell>
        <mxCell id="ha4TE4l5QeBn7lYoLzAS-1" value="NameNode" style="rounded=1;whiteSpace=wrap;html=1;" parent="1" vertex="1">
          <mxGeometry x="230" y="210" width="120" height="60" as="geometry" />
        </mxCell>
        <mxCell id="ha4TE4l5QeBn7lYoLzAS-2" value="HttpServer" style="rounded=1;whiteSpace=wrap;html=1;" parent="1" vertex="1">
          <mxGeometry x="150" y="350" width="120" height="60" as="geometry" />
        </mxCell>
        <mxCell id="ha4TE4l5QeBn7lYoLzAS-8" value="" style="edgeStyle=orthogonalEdgeStyle;rounded=0;orthogonalLoop=1;jettySize=auto;html=1;" parent="1" source="ha4TE4l5QeBn7lYoLzAS-4" target="ha4TE4l5QeBn7lYoLzAS-7" edge="1">
          <mxGeometry relative="1" as="geometry" />
        </mxCell>
        <mxCell id="ha4TE4l5QeBn7lYoLzAS-9" style="edgeStyle=orthogonalEdgeStyle;rounded=0;orthogonalLoop=1;jettySize=auto;html=1;entryX=0.5;entryY=0;entryDx=0;entryDy=0;" parent="1" source="ha4TE4l5QeBn7lYoLzAS-4" target="ha4TE4l5QeBn7lYoLzAS-10" edge="1">
          <mxGeometry relative="1" as="geometry">
            <mxPoint x="450" y="490" as="targetPoint" />
          </mxGeometry>
        </mxCell>
        <mxCell id="ha4TE4l5QeBn7lYoLzAS-4" value="RpcServer" style="rounded=1;whiteSpace=wrap;html=1;" parent="1" vertex="1">
          <mxGeometry x="330" y="350" width="120" height="60" as="geometry" />
        </mxCell>
        <mxCell id="ha4TE4l5QeBn7lYoLzAS-7" value="serviceRpcServer" style="whiteSpace=wrap;html=1;rounded=1;" parent="1" vertex="1">
          <mxGeometry x="250" y="480" width="120" height="60" as="geometry" />
        </mxCell>
        <mxCell id="ha4TE4l5QeBn7lYoLzAS-10" value="clientRpcServer" style="whiteSpace=wrap;html=1;rounded=1;" parent="1" vertex="1">
          <mxGeometry x="420" y="480" width="120" height="60" as="geometry" />
        </mxCell>
      </root>
    </mxGraphModel>
  </diagram>
  <diagram id="RKNqn7NyVi2s0vq0bVoF" name="NameNode联邦">
    <mxGraphModel dx="946" dy="528" grid="1" gridSize="10" guides="1" tooltips="1" connect="1" arrows="1" fold="1" page="1" pageScale="1" pageWidth="827" pageHeight="1169" math="0" shadow="0">
      <root>
        <mxCell id="gmCoTBchSWpw36qI7Mmh-0" />
        <mxCell id="gmCoTBchSWpw36qI7Mmh-1" parent="gmCoTBchSWpw36qI7Mmh-0" />
        <mxCell id="SfHE6blUwgNnkiZhLA7p-4" value="" style="rounded=1;whiteSpace=wrap;html=1;" vertex="1" parent="gmCoTBchSWpw36qI7Mmh-1">
          <mxGeometry x="160" y="80" width="260" height="300" as="geometry" />
        </mxCell>
        <mxCell id="SfHE6blUwgNnkiZhLA7p-0" value="NameNode" style="rounded=1;whiteSpace=wrap;html=1;" vertex="1" parent="gmCoTBchSWpw36qI7Mmh-1">
          <mxGeometry x="230" y="150" width="120" height="60" as="geometry" />
        </mxCell>
        <mxCell id="SfHE6blUwgNnkiZhLA7p-1" value="NameNode" style="rounded=1;whiteSpace=wrap;html=1;" vertex="1" parent="gmCoTBchSWpw36qI7Mmh-1">
          <mxGeometry x="230" y="260" width="120" height="60" as="geometry" />
        </mxCell>
        <mxCell id="SfHE6blUwgNnkiZhLA7p-5" value="NamingService" style="text;html=1;strokeColor=none;fillColor=none;align=center;verticalAlign=middle;whiteSpace=wrap;rounded=0;" vertex="1" parent="gmCoTBchSWpw36qI7Mmh-1">
          <mxGeometry x="270" y="100" width="40" height="20" as="geometry" />
        </mxCell>
        <mxCell id="SfHE6blUwgNnkiZhLA7p-11" style="edgeStyle=orthogonalEdgeStyle;rounded=0;orthogonalLoop=1;jettySize=auto;html=1;exitX=0.5;exitY=0;exitDx=0;exitDy=0;" edge="1" parent="gmCoTBchSWpw36qI7Mmh-1" source="SfHE6blUwgNnkiZhLA7p-6" target="SfHE6blUwgNnkiZhLA7p-4">
          <mxGeometry relative="1" as="geometry" />
        </mxCell>
        <mxCell id="SfHE6blUwgNnkiZhLA7p-12" style="edgeStyle=orthogonalEdgeStyle;rounded=0;orthogonalLoop=1;jettySize=auto;html=1;exitX=0.75;exitY=0;exitDx=0;exitDy=0;entryX=0.25;entryY=1;entryDx=0;entryDy=0;" edge="1" parent="gmCoTBchSWpw36qI7Mmh-1" source="SfHE6blUwgNnkiZhLA7p-6" target="SfHE6blUwgNnkiZhLA7p-7">
          <mxGeometry relative="1" as="geometry" />
        </mxCell>
        <mxCell id="SfHE6blUwgNnkiZhLA7p-6" value="DataNode" style="rounded=1;whiteSpace=wrap;html=1;" vertex="1" parent="gmCoTBchSWpw36qI7Mmh-1">
          <mxGeometry x="230" y="440" width="120" height="60" as="geometry" />
        </mxCell>
        <mxCell id="SfHE6blUwgNnkiZhLA7p-7" value="" style="rounded=1;whiteSpace=wrap;html=1;" vertex="1" parent="gmCoTBchSWpw36qI7Mmh-1">
          <mxGeometry x="490" y="80" width="260" height="300" as="geometry" />
        </mxCell>
        <mxCell id="SfHE6blUwgNnkiZhLA7p-8" value="NameNode" style="rounded=1;whiteSpace=wrap;html=1;" vertex="1" parent="gmCoTBchSWpw36qI7Mmh-1">
          <mxGeometry x="560" y="150" width="120" height="60" as="geometry" />
        </mxCell>
        <mxCell id="SfHE6blUwgNnkiZhLA7p-9" value="NameNode" style="rounded=1;whiteSpace=wrap;html=1;" vertex="1" parent="gmCoTBchSWpw36qI7Mmh-1">
          <mxGeometry x="560" y="260" width="120" height="60" as="geometry" />
        </mxCell>
        <mxCell id="SfHE6blUwgNnkiZhLA7p-10" value="NamingService" style="text;html=1;strokeColor=none;fillColor=none;align=center;verticalAlign=middle;whiteSpace=wrap;rounded=0;" vertex="1" parent="gmCoTBchSWpw36qI7Mmh-1">
          <mxGeometry x="600" y="100" width="40" height="20" as="geometry" />
        </mxCell>
        <mxCell id="SfHE6blUwgNnkiZhLA7p-14" style="edgeStyle=orthogonalEdgeStyle;rounded=0;orthogonalLoop=1;jettySize=auto;html=1;entryX=0.5;entryY=1;entryDx=0;entryDy=0;" edge="1" parent="gmCoTBchSWpw36qI7Mmh-1" source="SfHE6blUwgNnkiZhLA7p-13" target="SfHE6blUwgNnkiZhLA7p-7">
          <mxGeometry relative="1" as="geometry" />
        </mxCell>
        <mxCell id="SfHE6blUwgNnkiZhLA7p-15" style="edgeStyle=orthogonalEdgeStyle;rounded=0;orthogonalLoop=1;jettySize=auto;html=1;exitX=0.25;exitY=0;exitDx=0;exitDy=0;entryX=0.75;entryY=1;entryDx=0;entryDy=0;" edge="1" parent="gmCoTBchSWpw36qI7Mmh-1" source="SfHE6blUwgNnkiZhLA7p-13" target="SfHE6blUwgNnkiZhLA7p-4">
          <mxGeometry relative="1" as="geometry" />
        </mxCell>
        <mxCell id="SfHE6blUwgNnkiZhLA7p-13" value="DataNode" style="rounded=1;whiteSpace=wrap;html=1;" vertex="1" parent="gmCoTBchSWpw36qI7Mmh-1">
          <mxGeometry x="560" y="450" width="120" height="50" as="geometry" />
        </mxCell>
      </root>
    </mxGraphModel>
  </diagram>
</mxfile>
